<mxfile host="app.diagrams.net" modified="2022-12-23T13:25:38.217Z" agent="5.0 (Windows NT 10.0; Win64; x64) AppleWebKit/537.36 (KHTML, like Gecko) Chrome/108.0.0.0 Safari/537.36" etag="OPDN73i7QhZcwzWiycPP" version="20.7.4" type="github">
  <diagram id="Xy3mgkhUu2UrSCvjaE4D" name="Страница 1">
    <mxGraphModel dx="1674" dy="1933" grid="1" gridSize="10" guides="1" tooltips="1" connect="1" arrows="1" fold="1" page="1" pageScale="1" pageWidth="827" pageHeight="1169" math="0" shadow="0">
      <root>
        <mxCell id="0" />
        <mxCell id="1" parent="0" />
        <mxCell id="FoM0JvqMFie76RCQucXN-1" value="Менеджер по работе&lt;br&gt;с клиентами" style="shape=umlActor;verticalLabelPosition=bottom;verticalAlign=top;html=1;outlineConnect=0;" parent="1" vertex="1">
          <mxGeometry x="414" y="50" width="40" height="80" as="geometry" />
        </mxCell>
        <mxCell id="FoM0JvqMFie76RCQucXN-3" value="Инженер по сборке&lt;br&gt;настольных компьютеров" style="shape=umlActor;verticalLabelPosition=bottom;verticalAlign=top;html=1;outlineConnect=0;" parent="1" vertex="1">
          <mxGeometry x="1600" y="355" width="40" height="80" as="geometry" />
        </mxCell>
        <mxCell id="FoM0JvqMFie76RCQucXN-4" value="Инженер по сборке&lt;br&gt;ноутбуков" style="shape=umlActor;verticalLabelPosition=bottom;verticalAlign=top;html=1;outlineConnect=0;" parent="1" vertex="1">
          <mxGeometry x="1600" y="160" width="40" height="80" as="geometry" />
        </mxCell>
        <mxCell id="FoM0JvqMFie76RCQucXN-5" value="Завскладом" style="shape=umlActor;verticalLabelPosition=bottom;verticalAlign=top;html=1;outlineConnect=0;" parent="1" vertex="1">
          <mxGeometry x="1000" y="760" width="40" height="80" as="geometry" />
        </mxCell>
        <mxCell id="FoM0JvqMFie76RCQucXN-6" value="Инженер по&amp;nbsp;&lt;br&gt;тестированию" style="shape=umlActor;verticalLabelPosition=bottom;verticalAlign=top;html=1;outlineConnect=0;" parent="1" vertex="1">
          <mxGeometry x="1201" y="760" width="40" height="80" as="geometry" />
        </mxCell>
        <mxCell id="FoM0JvqMFie76RCQucXN-8" value="" style="endArrow=none;html=1;rounded=0;entryX=0;entryY=0.5;entryDx=0;entryDy=0;" parent="1" source="FoM0JvqMFie76RCQucXN-1" target="FoM0JvqMFie76RCQucXN-7" edge="1">
          <mxGeometry width="50" height="50" relative="1" as="geometry">
            <mxPoint x="646" y="420" as="sourcePoint" />
            <mxPoint x="696" y="370" as="targetPoint" />
          </mxGeometry>
        </mxCell>
        <mxCell id="FoM0JvqMFie76RCQucXN-21" value="" style="endArrow=block;html=1;rounded=0;endFill=0;exitX=0.5;exitY=0.5;exitDx=0;exitDy=0;exitPerimeter=0;" parent="1" source="FoM0JvqMFie76RCQucXN-4" target="FoM0JvqMFie76RCQucXN-23" edge="1">
          <mxGeometry width="50" height="50" relative="1" as="geometry">
            <mxPoint x="1050" y="690" as="sourcePoint" />
            <mxPoint x="910" y="810" as="targetPoint" />
          </mxGeometry>
        </mxCell>
        <mxCell id="FoM0JvqMFie76RCQucXN-22" value="" style="endArrow=block;html=1;rounded=0;endFill=0;exitX=0.5;exitY=0.5;exitDx=0;exitDy=0;exitPerimeter=0;" parent="1" source="FoM0JvqMFie76RCQucXN-3" target="FoM0JvqMFie76RCQucXN-23" edge="1">
          <mxGeometry width="50" height="50" relative="1" as="geometry">
            <mxPoint x="1370" y="380" as="sourcePoint" />
            <mxPoint x="1540" y="460" as="targetPoint" />
          </mxGeometry>
        </mxCell>
        <mxCell id="FoM0JvqMFie76RCQucXN-23" value="Инженер по&amp;nbsp;&lt;br&gt;сборке" style="shape=umlActor;verticalLabelPosition=bottom;verticalAlign=top;html=1;outlineConnect=0;" parent="1" vertex="1">
          <mxGeometry x="1480" y="275" width="40" height="80" as="geometry" />
        </mxCell>
        <mxCell id="FoM0JvqMFie76RCQucXN-27" value="" style="endArrow=none;html=1;rounded=0;" parent="1" source="FoM0JvqMFie76RCQucXN-23" target="FoM0JvqMFie76RCQucXN-24" edge="1">
          <mxGeometry width="50" height="50" relative="1" as="geometry">
            <mxPoint x="1969" y="120" as="sourcePoint" />
            <mxPoint x="1729" y="460" as="targetPoint" />
          </mxGeometry>
        </mxCell>
        <mxCell id="FoM0JvqMFie76RCQucXN-34" value="" style="endArrow=none;html=1;rounded=0;" parent="1" source="FoM0JvqMFie76RCQucXN-5" target="FoM0JvqMFie76RCQucXN-26" edge="1">
          <mxGeometry width="50" height="50" relative="1" as="geometry">
            <mxPoint x="2360" y="100" as="sourcePoint" />
            <mxPoint x="2370" y="340" as="targetPoint" />
          </mxGeometry>
        </mxCell>
        <mxCell id="FoM0JvqMFie76RCQucXN-36" value="" style="endArrow=none;html=1;rounded=0;" parent="1" source="FoM0JvqMFie76RCQucXN-6" target="FoM0JvqMFie76RCQucXN-35" edge="1">
          <mxGeometry width="50" height="50" relative="1" as="geometry">
            <mxPoint x="2360" y="90" as="sourcePoint" />
            <mxPoint x="2410" y="40" as="targetPoint" />
          </mxGeometry>
        </mxCell>
        <mxCell id="FoM0JvqMFie76RCQucXN-47" value="&#xa;Предприятие по сборке и продаже компьютеров&#xa;&#xa;" style="swimlane;" parent="1" vertex="1">
          <mxGeometry x="530" y="-110" width="870" height="850" as="geometry" />
        </mxCell>
        <mxCell id="FoM0JvqMFie76RCQucXN-12" value="Управление информацией о клиенте" style="ellipse;whiteSpace=wrap;html=1;" parent="FoM0JvqMFie76RCQucXN-47" vertex="1">
          <mxGeometry x="280" y="45" width="116" height="75" as="geometry" />
        </mxCell>
        <mxCell id="FoM0JvqMFie76RCQucXN-7" value="Работа с заказом" style="ellipse;whiteSpace=wrap;html=1;" parent="FoM0JvqMFie76RCQucXN-47" vertex="1">
          <mxGeometry x="34" y="185" width="104" height="60" as="geometry" />
        </mxCell>
        <mxCell id="FoM0JvqMFie76RCQucXN-17" value="Управление информацией о комплектующих" style="ellipse;whiteSpace=wrap;html=1;" parent="FoM0JvqMFie76RCQucXN-47" vertex="1">
          <mxGeometry x="28" y="610" width="110" height="70" as="geometry" />
        </mxCell>
        <mxCell id="FoM0JvqMFie76RCQucXN-18" value="Управление информацией о поставщиках" style="ellipse;whiteSpace=wrap;html=1;" parent="FoM0JvqMFie76RCQucXN-47" vertex="1">
          <mxGeometry x="44" y="470" width="110" height="70" as="geometry" />
        </mxCell>
        <mxCell id="FoM0JvqMFie76RCQucXN-56" value="добавлять&lt;br&gt;заказы" style="ellipse;whiteSpace=wrap;html=1;" parent="FoM0JvqMFie76RCQucXN-47" vertex="1">
          <mxGeometry x="170" y="290" width="100" height="60" as="geometry" />
        </mxCell>
        <mxCell id="FoM0JvqMFie76RCQucXN-61" value="изменять заказы" style="ellipse;whiteSpace=wrap;html=1;" parent="FoM0JvqMFie76RCQucXN-47" vertex="1">
          <mxGeometry x="28" y="300" width="100" height="60" as="geometry" />
        </mxCell>
        <mxCell id="FoM0JvqMFie76RCQucXN-60" value="удалять заказы" style="ellipse;whiteSpace=wrap;html=1;" parent="FoM0JvqMFie76RCQucXN-47" vertex="1">
          <mxGeometry x="230" y="210" width="110" height="50" as="geometry" />
        </mxCell>
        <mxCell id="FoM0JvqMFie76RCQucXN-69" value="добавить клиента" style="ellipse;whiteSpace=wrap;html=1;" parent="FoM0JvqMFie76RCQucXN-47" vertex="1">
          <mxGeometry x="480" y="30" width="100" height="50" as="geometry" />
        </mxCell>
        <mxCell id="FoM0JvqMFie76RCQucXN-68" value="удалить клиентов" style="ellipse;whiteSpace=wrap;html=1;" parent="FoM0JvqMFie76RCQucXN-47" vertex="1">
          <mxGeometry x="450" y="100" width="100" height="60" as="geometry" />
        </mxCell>
        <mxCell id="FoM0JvqMFie76RCQucXN-67" value="Посмотреть информацию о клинте" style="ellipse;whiteSpace=wrap;html=1;" parent="FoM0JvqMFie76RCQucXN-47" vertex="1">
          <mxGeometry x="390" y="180" width="100" height="60" as="geometry" />
        </mxCell>
        <mxCell id="FoM0JvqMFie76RCQucXN-75" value="Добавить поставщика" style="ellipse;whiteSpace=wrap;html=1;" parent="FoM0JvqMFie76RCQucXN-47" vertex="1">
          <mxGeometry x="220" y="420" width="100" height="50" as="geometry" />
        </mxCell>
        <mxCell id="FoM0JvqMFie76RCQucXN-74" value="Удалить поставщика" style="ellipse;whiteSpace=wrap;html=1;" parent="FoM0JvqMFie76RCQucXN-47" vertex="1">
          <mxGeometry x="240" y="510" width="90" height="60" as="geometry" />
        </mxCell>
        <mxCell id="FoM0JvqMFie76RCQucXN-80" value="Просмотр информации о комплектующих" style="ellipse;whiteSpace=wrap;html=1;" parent="FoM0JvqMFie76RCQucXN-47" vertex="1">
          <mxGeometry x="80" y="720" width="100" height="60" as="geometry" />
        </mxCell>
        <mxCell id="FoM0JvqMFie76RCQucXN-79" value="Анализ расходования" style="ellipse;whiteSpace=wrap;html=1;" parent="FoM0JvqMFie76RCQucXN-47" vertex="1">
          <mxGeometry x="190" y="690" width="90" height="50" as="geometry" />
        </mxCell>
        <mxCell id="FoM0JvqMFie76RCQucXN-78" value="Заказ комплектующих" style="ellipse;whiteSpace=wrap;html=1;" parent="FoM0JvqMFie76RCQucXN-47" vertex="1">
          <mxGeometry x="215" y="600" width="110" height="60" as="geometry" />
        </mxCell>
        <mxCell id="FoM0JvqMFie76RCQucXN-24" value="&#xa;Сборка компьютеров&#xa;&#xa;" style="ellipse;whiteSpace=wrap;html=1;" parent="FoM0JvqMFie76RCQucXN-47" vertex="1">
          <mxGeometry x="641" y="410" width="110" height="60" as="geometry" />
        </mxCell>
        <mxCell id="FoM0JvqMFie76RCQucXN-25" value="&#xa;Требование необходимых комплектующих &#xa;&#xa;" style="ellipse;whiteSpace=wrap;html=1;" parent="FoM0JvqMFie76RCQucXN-47" vertex="1">
          <mxGeometry x="396" y="440" width="106" height="70" as="geometry" />
        </mxCell>
        <mxCell id="FoM0JvqMFie76RCQucXN-85" value="Просмотр наряда на сборку" style="ellipse;whiteSpace=wrap;html=1;" parent="FoM0JvqMFie76RCQucXN-47" vertex="1">
          <mxGeometry x="502" y="290" width="110" height="70" as="geometry" />
        </mxCell>
        <mxCell id="FoM0JvqMFie76RCQucXN-86" value="Отметить ход работы по сборке" style="ellipse;whiteSpace=wrap;html=1;" parent="FoM0JvqMFie76RCQucXN-47" vertex="1">
          <mxGeometry x="646" y="230" width="100" height="60" as="geometry" />
        </mxCell>
        <mxCell id="FoM0JvqMFie76RCQucXN-35" value="Тестирование компьютеров" style="ellipse;whiteSpace=wrap;html=1;" parent="FoM0JvqMFie76RCQucXN-47" vertex="1">
          <mxGeometry x="631" y="560" width="120" height="80" as="geometry" />
        </mxCell>
        <mxCell id="FoM0JvqMFie76RCQucXN-26" value="&#xa;Учет поступления и выдачи комплектующих &#xa;&#xa;" style="ellipse;whiteSpace=wrap;html=1;" parent="FoM0JvqMFie76RCQucXN-47" vertex="1">
          <mxGeometry x="412.5" y="570" width="155" height="70" as="geometry" />
        </mxCell>
        <mxCell id="ACc3F-8uLgRBimiIIJpC-2" value="&amp;lt;&amp;lt;include&amp;gt;&amp;gt;" style="html=1;verticalAlign=bottom;labelBackgroundColor=none;endArrow=open;endFill=0;dashed=1;rounded=0;" parent="FoM0JvqMFie76RCQucXN-47" source="FoM0JvqMFie76RCQucXN-24" target="FoM0JvqMFie76RCQucXN-25" edge="1">
          <mxGeometry width="160" relative="1" as="geometry">
            <mxPoint x="440" y="480" as="sourcePoint" />
            <mxPoint x="600" y="480" as="targetPoint" />
          </mxGeometry>
        </mxCell>
        <mxCell id="ACc3F-8uLgRBimiIIJpC-1" value="&amp;lt;&amp;lt;extend&amp;gt;&amp;gt;" style="html=1;verticalAlign=bottom;labelBackgroundColor=none;endArrow=open;endFill=0;dashed=1;rounded=0;" parent="FoM0JvqMFie76RCQucXN-47" source="FoM0JvqMFie76RCQucXN-86" target="FoM0JvqMFie76RCQucXN-24" edge="1">
          <mxGeometry width="160" relative="1" as="geometry">
            <mxPoint x="340" y="360" as="sourcePoint" />
            <mxPoint x="500" y="360" as="targetPoint" />
          </mxGeometry>
        </mxCell>
        <mxCell id="ACc3F-8uLgRBimiIIJpC-3" value="&amp;lt;&amp;lt;extend&amp;gt;&amp;gt;" style="html=1;verticalAlign=bottom;labelBackgroundColor=none;endArrow=open;endFill=0;dashed=1;rounded=0;" parent="FoM0JvqMFie76RCQucXN-47" source="FoM0JvqMFie76RCQucXN-85" target="FoM0JvqMFie76RCQucXN-24" edge="1">
          <mxGeometry width="160" relative="1" as="geometry">
            <mxPoint x="928.6571003338545" y="166.90616907964386" as="sourcePoint" />
            <mxPoint x="1035.8109004505563" y="182.36520102161103" as="targetPoint" />
          </mxGeometry>
        </mxCell>
        <mxCell id="ACc3F-8uLgRBimiIIJpC-4" value="&amp;lt;&amp;lt;extend&amp;gt;&amp;gt;" style="html=1;verticalAlign=bottom;labelBackgroundColor=none;endArrow=open;endFill=0;dashed=1;rounded=0;" parent="FoM0JvqMFie76RCQucXN-47" source="FoM0JvqMFie76RCQucXN-68" target="FoM0JvqMFie76RCQucXN-12" edge="1">
          <mxGeometry width="160" relative="1" as="geometry">
            <mxPoint x="1028.0184057863153" y="106.78732227634009" as="sourcePoint" />
            <mxPoint x="1068.6431706462445" y="162.13053124188264" as="targetPoint" />
          </mxGeometry>
        </mxCell>
        <mxCell id="ACc3F-8uLgRBimiIIJpC-5" value="&amp;lt;&amp;lt;extend&amp;gt;&amp;gt;" style="html=1;verticalAlign=bottom;labelBackgroundColor=none;endArrow=open;endFill=0;dashed=1;rounded=0;" parent="FoM0JvqMFie76RCQucXN-47" source="FoM0JvqMFie76RCQucXN-67" target="FoM0JvqMFie76RCQucXN-12" edge="1">
          <mxGeometry width="160" relative="1" as="geometry">
            <mxPoint x="465.08801021687896" y="126.81482868752391" as="sourcePoint" />
            <mxPoint x="400.9166799556797" y="107.85237011059849" as="targetPoint" />
          </mxGeometry>
        </mxCell>
        <mxCell id="ACc3F-8uLgRBimiIIJpC-6" value="&amp;lt;&amp;lt;extend&amp;gt;&amp;gt;" style="html=1;verticalAlign=bottom;labelBackgroundColor=none;endArrow=open;endFill=0;dashed=1;rounded=0;" parent="FoM0JvqMFie76RCQucXN-47" source="FoM0JvqMFie76RCQucXN-69" target="FoM0JvqMFie76RCQucXN-12" edge="1">
          <mxGeometry width="160" relative="1" as="geometry">
            <mxPoint x="428.4102501072525" y="192.94084680108972" as="sourcePoint" />
            <mxPoint x="374.7291909487708" y="125.78046324013621" as="targetPoint" />
          </mxGeometry>
        </mxCell>
        <mxCell id="ACc3F-8uLgRBimiIIJpC-7" value="&amp;lt;&amp;lt;extend&amp;gt;&amp;gt;" style="html=1;verticalAlign=bottom;labelBackgroundColor=none;endArrow=open;endFill=0;dashed=1;rounded=0;" parent="FoM0JvqMFie76RCQucXN-47" source="FoM0JvqMFie76RCQucXN-12" target="FoM0JvqMFie76RCQucXN-7" edge="1">
          <mxGeometry width="160" relative="1" as="geometry">
            <mxPoint x="428.4102501072525" y="192.94084680108972" as="sourcePoint" />
            <mxPoint x="374.7291909487708" y="125.78046324013621" as="targetPoint" />
          </mxGeometry>
        </mxCell>
        <mxCell id="ACc3F-8uLgRBimiIIJpC-8" value="&amp;lt;&amp;lt;extend&amp;gt;&amp;gt;" style="html=1;verticalAlign=bottom;labelBackgroundColor=none;endArrow=open;endFill=0;dashed=1;rounded=0;" parent="FoM0JvqMFie76RCQucXN-47" source="FoM0JvqMFie76RCQucXN-60" target="FoM0JvqMFie76RCQucXN-7" edge="1">
          <mxGeometry width="160" relative="1" as="geometry">
            <mxPoint x="303.0023662645881" y="116.16072759796316" as="sourcePoint" />
            <mxPoint x="134.49899721528936" y="204.8338586015152" as="targetPoint" />
          </mxGeometry>
        </mxCell>
        <mxCell id="ACc3F-8uLgRBimiIIJpC-9" value="&amp;lt;&amp;lt;extend&amp;gt;&amp;gt;" style="html=1;verticalAlign=bottom;labelBackgroundColor=none;endArrow=open;endFill=0;dashed=1;rounded=0;" parent="FoM0JvqMFie76RCQucXN-47" source="FoM0JvqMFie76RCQucXN-56" target="FoM0JvqMFie76RCQucXN-7" edge="1">
          <mxGeometry width="160" relative="1" as="geometry">
            <mxPoint x="241.168907544974" y="239.87322928999765" as="sourcePoint" />
            <mxPoint x="147.2284900140612" y="230.14859196121233" as="targetPoint" />
          </mxGeometry>
        </mxCell>
        <mxCell id="ACc3F-8uLgRBimiIIJpC-10" value="&amp;lt;&amp;lt;extend&amp;gt;&amp;gt;" style="html=1;verticalAlign=bottom;labelBackgroundColor=none;endArrow=open;endFill=0;dashed=1;rounded=0;" parent="FoM0JvqMFie76RCQucXN-47" source="FoM0JvqMFie76RCQucXN-61" target="FoM0JvqMFie76RCQucXN-7" edge="1">
          <mxGeometry width="160" relative="1" as="geometry">
            <mxPoint x="199.43325597517287" y="306.2588395923676" as="sourcePoint" />
            <mxPoint x="126.83065118461491" y="249.15834607749684" as="targetPoint" />
          </mxGeometry>
        </mxCell>
        <mxCell id="ACc3F-8uLgRBimiIIJpC-11" value="&amp;lt;&amp;lt;extend&amp;gt;&amp;gt;" style="html=1;verticalAlign=bottom;labelBackgroundColor=none;endArrow=open;endFill=0;dashed=1;rounded=0;" parent="FoM0JvqMFie76RCQucXN-47" source="FoM0JvqMFie76RCQucXN-75" target="FoM0JvqMFie76RCQucXN-18" edge="1">
          <mxGeometry width="160" relative="1" as="geometry">
            <mxPoint x="89.76360778331173" y="310.0186676837038" as="sourcePoint" />
            <mxPoint x="93.91472220203423" y="254.97586834575486" as="targetPoint" />
          </mxGeometry>
        </mxCell>
        <mxCell id="ACc3F-8uLgRBimiIIJpC-12" value="&amp;lt;&amp;lt;extend&amp;gt;&amp;gt;" style="html=1;verticalAlign=bottom;labelBackgroundColor=none;endArrow=open;endFill=0;dashed=1;rounded=0;" parent="FoM0JvqMFie76RCQucXN-47" source="FoM0JvqMFie76RCQucXN-74" target="FoM0JvqMFie76RCQucXN-18" edge="1">
          <mxGeometry width="160" relative="1" as="geometry">
            <mxPoint x="239.13304856088553" y="469.4039255072289" as="sourcePoint" />
            <mxPoint x="157.16381333998424" y="498.10041637193535" as="targetPoint" />
          </mxGeometry>
        </mxCell>
        <mxCell id="ACc3F-8uLgRBimiIIJpC-13" value="&amp;lt;&amp;lt;extend&amp;gt;&amp;gt;" style="html=1;verticalAlign=bottom;labelBackgroundColor=none;endArrow=open;endFill=0;dashed=1;rounded=0;" parent="FoM0JvqMFie76RCQucXN-47" source="FoM0JvqMFie76RCQucXN-78" target="FoM0JvqMFie76RCQucXN-17" edge="1">
          <mxGeometry width="160" relative="1" as="geometry">
            <mxPoint x="251.6886739677193" y="541.8587733022027" as="sourcePoint" />
            <mxPoint x="161.74247018672895" y="524.9246583684703" as="targetPoint" />
          </mxGeometry>
        </mxCell>
        <mxCell id="ACc3F-8uLgRBimiIIJpC-14" value="&amp;lt;&amp;lt;extend&amp;gt;&amp;gt;" style="html=1;verticalAlign=bottom;labelBackgroundColor=none;endArrow=open;endFill=0;dashed=1;rounded=0;" parent="FoM0JvqMFie76RCQucXN-47" source="FoM0JvqMFie76RCQucXN-79" target="FoM0JvqMFie76RCQucXN-17" edge="1">
          <mxGeometry width="160" relative="1" as="geometry">
            <mxPoint x="225.5229249752133" y="644.1270511382413" as="sourcePoint" />
            <mxPoint x="147.56819932515418" y="650.6228717118861" as="targetPoint" />
          </mxGeometry>
        </mxCell>
        <mxCell id="ACc3F-8uLgRBimiIIJpC-15" value="&amp;lt;&amp;lt;extend&amp;gt;&amp;gt;" style="html=1;verticalAlign=bottom;labelBackgroundColor=none;endArrow=open;endFill=0;dashed=1;rounded=0;" parent="FoM0JvqMFie76RCQucXN-47" source="FoM0JvqMFie76RCQucXN-80" target="FoM0JvqMFie76RCQucXN-17" edge="1">
          <mxGeometry width="160" relative="1" as="geometry">
            <mxPoint x="210.27625770891837" y="709.0984731564204" as="sourcePoint" />
            <mxPoint x="137.55641817558399" y="675.5194031071769" as="targetPoint" />
          </mxGeometry>
        </mxCell>
        <mxCell id="FoM0JvqMFie76RCQucXN-2" value="Менеджер&lt;br&gt;по снабжению" style="shape=umlActor;verticalLabelPosition=bottom;verticalAlign=top;html=1;outlineConnect=0;" parent="1" vertex="1">
          <mxGeometry x="380" y="390" width="40" height="80" as="geometry" />
        </mxCell>
        <mxCell id="FoM0JvqMFie76RCQucXN-19" value="" style="endArrow=none;html=1;rounded=0;entryX=0;entryY=0.5;entryDx=0;entryDy=0;" parent="1" source="FoM0JvqMFie76RCQucXN-2" target="FoM0JvqMFie76RCQucXN-18" edge="1">
          <mxGeometry width="50" height="50" relative="1" as="geometry">
            <mxPoint x="470" y="710" as="sourcePoint" />
            <mxPoint x="520" y="660" as="targetPoint" />
          </mxGeometry>
        </mxCell>
        <mxCell id="FoM0JvqMFie76RCQucXN-20" value="" style="endArrow=none;html=1;rounded=0;" parent="1" source="FoM0JvqMFie76RCQucXN-2" target="FoM0JvqMFie76RCQucXN-17" edge="1">
          <mxGeometry width="50" height="50" relative="1" as="geometry">
            <mxPoint x="470" y="700" as="sourcePoint" />
            <mxPoint x="520" y="650" as="targetPoint" />
          </mxGeometry>
        </mxCell>
      </root>
    </mxGraphModel>
  </diagram>
</mxfile>
